<svg xmlns="http://www.w3.org/2000/svg" width="43.99" height="45.38" viewBox="0 0 43.99 45.38">
    <path d="M22.12 32.89a15.78 15.78 0 0 1-3.88.53C10.7 33.48 1.3 27.68.87 17.88A16.47 16.47 0 0 1 16.8.87c7.75-.35 15.8 5 15.62 8.93-.11 2.48-3.42 3.35-3.36 6.34a3.79 3.79 0 0 0 .94 2.38" fill="none" stroke="#b2b2b2" stroke-linecap="round" stroke-miterlimit="10" stroke-width="1.7"/>
    <path d="M28.35 28L39.06 5.17a.94.94 0 0 1 1.25-.45h0a4.93 4.93 0 0 1 2.36 6.56l-9.75 20.77" fill="none" stroke="#201c2c" stroke-miterlimit="10" stroke-width="1.7"/>
    <path d="M34.84 29.92a4.92 4.92 0 0 0-2.42-3.24 5 5 0 0 0-4.42 0l-2.52 5.36a4.26 4.26 0 0 1 6.9 3.24z" fill="#201c2c"/>
    <path d="M28 31a3.6 3.6 0 0 1 3.52 1.65h0a3.8 3.8 0 0 1-1.4 5.35l-3.82 2a.4.4 0 0 1-.58-.27l-.86-4.26A3.78 3.78 0 0 1 28 31z" fill="none" stroke="#201c2c" stroke-miterlimit="10" stroke-width="1.7"/>
    <path d="M2.21 39.79c4.24-2.18 6.8-1.93 8.4-1.19 3 1.38 3.16 4.68 6 5.67 2.38.83 5-.47 7-1.82" fill="none" stroke="#f7b907" stroke-linecap="round" stroke-linejoin="round" stroke-width="1.7"/>
    <ellipse cx="23.39" cy="11.67" rx="2.66" ry="2.58" fill="none" stroke="#f7b907" stroke-linecap="round" stroke-linejoin="round" stroke-width="1.7"/>
    <ellipse cx="14.64" cy="8.45" rx="2.77" ry="2.68" fill="none" stroke="#e83041" stroke-miterlimit="10" stroke-width="1.7"/>
    <ellipse cx="8.41" cy="16.34" rx="2.77" ry="2.68" fill="none" stroke="#3987e0" stroke-miterlimit="10" stroke-width="1.7"/>
    <ellipse cx="13.87" cy="24.56" rx="2.77" ry="2.68" fill="none" stroke="#201c2c" stroke-miterlimit="10" stroke-width="1.7"/>
</svg>
