<svg xmlns="http://www.w3.org/2000/svg" viewBox="0 0 65.17 52.55" width="66" height="53">
    <rect x="15.81" y="1" width="48.36" height="38.4" rx="3.7" fill="#fbfbfb" stroke="silver" stroke-miterlimit="10" stroke-width="2"/>
    <rect x="1" y="13.15" width="48.36" height="38.4" rx="3.7" fill="#fbfbfb" stroke="#292538" stroke-miterlimit="10" stroke-width="2"/>
    <path d="M8.81 46.23h31.65a1.77 1.77 0 0 0 1.26-3l-5.18-5.28a1.76 1.76 0 0 0-2.26-.23l-5.63 3.83a1.78 1.78 0 0 1-2.52-.55l-7.71-12.85a1.77 1.77 0 0 0-3.09.09l-8.09 15.4a1.77 1.77 0 0 0 1.57 2.59z" fill="#292538"/>
    <circle cx="37.66" cy="27.48" r="3.77" fill="#292538"/>
</svg>
