<svg xmlns="http://www.w3.org/2000/svg" viewBox="0 0 25.37 24.2" width="26" height="25">
    <path d="M.85 7.79A.85.85 0 0 1 0 6.94V0h7.17a.85.85 0 0 1 0 1.7H1.7v5.24a.85.85 0 0 1-.85.85zM7.17 24.2H0v-6.94a.85.85 0 1 1 1.7 0v5.24h5.47a.85.85 0 0 1 0 1.7zM24.52 7.79a.85.85 0 0 1-.85-.85V1.7h-5a.85.85 0 0 1 0-1.7h6.71v6.94a.85.85 0 0 1-.86.85zM25.37 24.2h-6.71a.85.85 0 1 1 0-1.7h5v-5.24a.85.85 0 0 1 1.7 0z" fill="#3987e0"/>
    <path d="M18.33 18.5H7.05a2 2 0 0 1-2-2V7.74a2 2 0 0 1 2-2h11.28a2 2 0 0 1 2 2v8.72a2 2 0 0 1-2 2.04zM7.05 7.4a.34.34 0 0 0-.34.34v8.72a.34.34 0 0 0 .34.34h11.28a.34.34 0 0 0 .33-.34V7.74a.34.34 0 0 0-.33-.34z" fill="#201c2c"/>
</svg>
